/* XPM */
static const char *sos[] = {
/* columns rows colors chars-per-pixel */
"32 32 5 1 ",
"  c black",
". c red",
"X c green",
"o c cyan",
"O c gray100",
/* pixels */
"                              XX",
"                              XX",
"                        OO    XX",
"                        OO    XX",
"        OO              OO    XX",
"        OO              OO    XX",
"        OO        ..    OO    XX",
"        OO        ..    OO    XX",
"        OO        ..    OO  OOXX",
"        OO        ..    OO  OOXX",
"        OO    OO  ..    OO  OOXX",
"        OO    OO  ..    OO  OOXX",
"  oo    OO    OO  ..    OO  OOXX",
"  oo    OO    OO  ..    OO  OOXX",
"  oo  ..OO    OO  ..    OO  OOXX",
"  oo  ..OO    OO  ..    OO  OOXX",
"  oo  ..OO  OOOO  ..    OO  OOXX",
"  oo  ..OO  OOOO  ..    OO  OOXX",
"  oo  ..OOOOOOOO  ..    OO  OOXX",
"  oo  ..OOOOOOOO  ..    OO  OOXX",
"  oo  ..OOOOOOOOOO..    OO  OOXX",
"  oo  ..OOOOOOOOOO..    OO  OOXX",
"  ooOO..OOOOOOOOOO..    OO  OOXX",
"  ooOO..OOOOOOOOOO..    OO  OOXX",
"  ooOO..OOOOOOOOOO..oo  OO  OOXX",
"  ooOO..OOOOOOOOOO..oo  OO  OOXX",
"  ooOO..OOOOOOOOOO..ooOOOO  OOXX",
"  ooOO..OOOOOOOOOO..ooOOOO  OOXX",
"OOooOO..OOOOOOOOOO..ooOOOO  OOXX",
"OOooOO..OOOOOOOOOO..ooOOOO  OOXX",
"OOooOO..OOOOOOOOOO..ooOOOOOOOOXX",
"OOooOO..OOOOOOOOOO..ooOOOOOOOOXX"
};
